<svg width="39" height="19" viewBox="0 0 39 19" fill="none" xmlns="http://www.w3.org/2000/svg">
<g clip-path="url(#clip0)">
<path d="M6.53823 0.803101H1.86943C0.627019 0.803101 0 1.80636 0 3.79354V14.429C0 14.6895 0.084104 14.8499 0.265304 14.8499H1.67661C1.8455 14.8499 1.95422 14.6895 1.95422 14.429V14.0252C1.95422 13.0401 2.2038 12.5033 2.82398 12.3997H6.53823C7.90099 12.3997 8.51639 11.417 8.51639 9.26939V3.93345C8.51639 1.78589 7.90099 0.803101 6.53823 0.803101ZM6.56422 8.36622C6.56422 9.53101 6.40558 9.77102 5.57275 9.77102H3.59459C2.76244 9.77102 2.23115 10.2328 1.95354 11.136V4.57613C1.95354 3.67297 2.08619 3.43182 2.74945 3.43182H5.57275C6.40558 3.43182 6.56422 3.67297 6.56422 4.83661V8.36622Z" fill="white"/>
<path d="M12.9916 6.68269C11.9181 6.68269 11.4593 7.58585 11.4593 9.11122V14.4688C11.4593 14.7099 11.3868 14.8498 11.2179 14.8498H9.93927C9.77038 14.8498 9.68628 14.7099 9.68628 14.4688V4.67617C9.68628 4.43503 9.77038 4.29398 9.93927 4.29398H11.0128C11.1701 4.29398 11.2542 4.43503 11.2542 4.67617V6.25614C11.4593 4.95258 12.0508 4.28943 13.1003 4.28943H13.5345C13.6911 4.28943 13.7752 4.43048 13.7752 4.67162V6.30164C13.7752 6.56212 13.6911 6.68269 13.5345 6.68269H12.9916Z" fill="white"/>
<path d="M21.3146 11.98C21.3146 13.9671 20.7839 14.8498 19.5176 14.8498H16.3811C15.1264 14.8498 14.5835 13.9671 14.5835 11.98V7.16613C14.5835 5.18009 15.1264 4.29626 16.3811 4.29626H19.5176C20.7839 4.29626 21.3146 5.18009 21.3146 7.16613V11.98ZM19.5415 7.92711C19.5415 6.8829 19.4212 6.6827 18.6731 6.6827H17.2372C16.4775 6.6827 16.3565 6.8829 16.3565 7.92711V11.2178C16.3565 12.2609 16.4775 12.4623 17.2372 12.4623H18.6731C19.4212 12.4623 19.5415 12.2609 19.5415 11.2178V7.92711Z" fill="white"/>
<path d="M23.0999 6.68271H22.4961C22.3389 6.68271 22.2548 6.56214 22.2548 6.30166V4.67619C22.2548 4.43505 22.3389 4.294 22.4961 4.294H23.0992V2.99044C23.0999 1.00326 23.7269 0 24.9693 0H26.4531C26.622 0 26.6945 0.141048 26.6945 0.381057V2.00652C26.6945 2.26814 26.622 2.38758 26.4531 2.38758H25.6695C25.0056 2.38758 24.8729 2.62872 24.8729 3.53188V4.294H26.4531C26.622 4.294 26.6945 4.43505 26.6945 4.67619V6.30166C26.6945 6.56214 26.622 6.68271 26.4531 6.68271H24.8729V14.4688C24.8729 14.7099 24.7888 14.8498 24.6199 14.8498H23.3413C23.1724 14.8498 23.0999 14.7099 23.0999 14.4688V6.68271Z" fill="white"/>
<path d="M28.0217 6.68271H27.4193C27.2627 6.68271 27.1786 6.56214 27.1786 6.30166V4.67619C27.1786 4.43505 27.2627 4.294 27.4193 4.294H28.023V2.99044C28.0217 1.00326 28.6501 0 29.8911 0H31.3749C31.5438 0 31.6163 0.141048 31.6163 0.381057V2.00652C31.6163 2.26814 31.5438 2.38758 31.3749 2.38758H30.5906C29.9274 2.38758 29.7947 2.62872 29.7947 3.53188V4.294H31.3749C31.5438 4.294 31.6163 4.43505 31.6163 4.67619V6.30166C31.6163 6.56214 31.5438 6.68271 31.3749 6.68271H29.7947V14.4688C29.7947 14.7099 29.7099 14.8498 29.541 14.8498H28.2624C28.0935 14.8498 28.0217 14.7099 28.0217 14.4688V6.68271Z" fill="white"/>
<path d="M37.0079 18.9436H34.3781C33.1965 18.9436 32.6899 18.1815 32.6899 16.2944V16.0942C32.6863 16.0404 32.6902 15.9859 32.7011 15.9348C32.712 15.8838 32.7296 15.8375 32.7527 15.7993C32.7759 15.7612 32.8039 15.7322 32.8346 15.7145C32.8654 15.6969 32.8982 15.691 32.9305 15.6972H34.1613C34.3302 15.6972 34.4143 15.8383 34.4143 16.0988V16.1989C34.4143 16.6004 34.5477 16.7608 34.813 16.7608H36.333C37.0564 16.7608 37.2376 16.4605 37.2376 15.4368V12.2711C36.96 13.1743 36.4294 13.6361 35.5966 13.6361H34.3658C33.1111 13.6361 32.5558 12.7534 32.5558 10.7663V4.67618C32.5542 4.62359 32.5594 4.57104 32.5711 4.52212C32.5828 4.4732 32.6008 4.42907 32.6237 4.39277C32.6466 4.35646 32.674 4.32884 32.704 4.31179C32.7339 4.29474 32.7657 4.28866 32.7972 4.29398H34.0882C34.2448 4.29398 34.3295 4.43503 34.3295 4.67618V10.0098C34.3295 11.0529 34.4622 11.2542 35.2102 11.2542H36.1272C36.9231 11.2542 37.2369 10.7117 37.2369 9.6083V4.67618C37.2369 4.43503 37.321 4.29398 37.4783 4.29398H38.77C38.8008 4.28902 38.832 4.29551 38.8612 4.31298C38.8904 4.33045 38.9169 4.35847 38.9388 4.39501C38.9607 4.43156 38.9775 4.47573 38.9879 4.52435C38.9983 4.57297 39.0021 4.62482 38.999 4.67618V15.753C38.9983 17.8585 38.3228 18.9436 37.0079 18.9436Z" fill="white"/>
</g>
<defs>
<clipPath id="clip0">
<rect width="39" height="18.9851" fill="white"/>
</clipPath>
</defs>
</svg>
