<svg width="259" height="206" viewBox="0 0 259 206" fill="none" xmlns="http://www.w3.org/2000/svg">
<path d="M239.631 197.361L233.972 202.965" stroke="#24EF7F" stroke-width="3" stroke-miterlimit="10" stroke-linecap="round" stroke-linejoin="round"/>
<path d="M239.631 202.965L233.972 197.361" stroke="#24EF7F" stroke-width="2" stroke-miterlimit="10" stroke-linecap="round" stroke-linejoin="round"/>
<path d="M9.00208 119.208L1.00011 119.208" stroke="#24EF7F" stroke-width="2" stroke-miterlimit="10" stroke-linecap="round" stroke-linejoin="round"/>
<path d="M5.00207 123.181L5.00208 115.246" stroke="#24EF7F" stroke-width="2" stroke-miterlimit="10" stroke-linecap="round" stroke-linejoin="round"/>
<path d="M171.002 21.962L163 21.962" stroke="#24EF7F" stroke-width="2" stroke-miterlimit="10" stroke-linecap="round" stroke-linejoin="round"/>
<path d="M167.002 25.9347L167.002 17.9999" stroke="#24EF7F" stroke-width="2" stroke-miterlimit="10" stroke-linecap="round" stroke-linejoin="round"/>
<path d="M243.863 10.633C241.183 10.633 239 8.47991 239 5.81645C239 3.16227 241.174 0.999939 243.863 0.999939C246.543 0.999939 248.726 3.15299 248.726 5.81645C248.717 8.47991 246.543 10.633 243.863 10.633Z" stroke="#24EF7F" stroke-width="2" stroke-miterlimit="10" stroke-linecap="round" stroke-linejoin="round"/>
<path d="M43.6205 205C40.9407 205 38.7575 202.847 38.7575 200.184C38.7575 197.529 40.9313 195.367 43.6205 195.367C46.3003 195.367 48.4835 197.52 48.4835 200.184C48.4742 202.847 46.3003 205 43.6205 205Z" stroke="#24EF7F" stroke-width="2" stroke-miterlimit="10" stroke-linecap="round" stroke-linejoin="round"/>
<path d="M49.9472 3.89742C49.9472 4.86083 50.7357 5.64183 51.7085 5.64183C52.6812 5.64183 53.4697 4.86083 53.4697 3.89742C53.4697 2.93401 52.6812 2.15301 51.7085 2.15301C50.7357 2.15301 49.9472 2.93401 49.9472 3.89742Z" fill="#24EF7F"/>
<path d="M49.9472 16.0713C49.9472 17.0347 50.7357 17.8157 51.7085 17.8157C52.6812 17.8157 53.4697 17.0347 53.4697 16.0713C53.4697 15.1079 52.6812 14.3269 51.7085 14.3269C50.7357 14.3269 49.9472 15.1079 49.9472 16.0713Z" fill="#24EF7F"/>
<path d="M49.9472 28.2563C49.9472 29.2197 50.7357 30.0007 51.7085 30.0007C52.6812 30.0007 53.4697 29.2197 53.4697 28.2563C53.4697 27.2929 52.6812 26.5119 51.7085 26.5119C50.7357 26.5119 49.9472 27.2929 49.9472 28.2563Z" fill="#24EF7F"/>
<path d="M49.9472 40.4312C49.9472 41.3946 50.7357 42.1756 51.7085 42.1756C52.6812 42.1756 53.4697 41.3946 53.4697 40.4312C53.4697 39.4677 52.6812 38.6868 51.7085 38.6868C50.7357 38.6868 49.9472 39.4677 49.9472 40.4312Z" fill="#24EF7F"/>
<path d="M49.9472 52.6152C49.9472 53.5786 50.7357 54.3596 51.7085 54.3596C52.6812 54.3596 53.4697 53.5786 53.4697 52.6152C53.4697 51.6518 52.6812 50.8708 51.7085 50.8708C50.7357 50.8708 49.9472 51.6518 49.9472 52.6152Z" fill="#24EF7F"/>
<path d="M37.6536 3.89729C37.6536 4.8607 38.4422 5.6417 39.4149 5.6417C40.3876 5.6417 41.1761 4.8607 41.1761 3.89729C41.1761 2.93388 40.3876 2.15288 39.4149 2.15288C38.4422 2.15288 37.6536 2.93388 37.6536 3.89729Z" fill="#24EF7F"/>
<path d="M37.6536 16.0716C37.6536 17.035 38.4422 17.816 39.4149 17.816C40.3876 17.816 41.1761 17.035 41.1761 16.0716C41.1761 15.1082 40.3876 14.3272 39.4149 14.3272C38.4422 14.3272 37.6536 15.1082 37.6536 16.0716Z" fill="#24EF7F"/>
<path d="M37.6536 28.2562C37.6536 29.2196 38.4422 30.0006 39.4149 30.0006C40.3876 30.0006 41.1761 29.2196 41.1761 28.2562C41.1761 27.2928 40.3876 26.5118 39.4149 26.5118C38.4422 26.5118 37.6536 27.2928 37.6536 28.2562Z" fill="#24EF7F"/>
<path d="M37.6536 40.431C37.6536 41.3944 38.4422 42.1754 39.4149 42.1754C40.3876 42.1754 41.1761 41.3944 41.1761 40.431C41.1761 39.4676 40.3876 38.6866 39.4149 38.6866C38.4422 38.6866 37.6536 39.4676 37.6536 40.431Z" fill="#24EF7F"/>
<path d="M37.6536 52.6151C37.6536 53.5785 38.4422 54.3595 39.4149 54.3595C40.3876 54.3595 41.1761 53.5785 41.1761 52.6151C41.1761 51.6516 40.3876 50.8707 39.4149 50.8707C38.4422 50.8707 37.6536 51.6516 37.6536 52.6151Z" fill="#24EF7F"/>
<path d="M25.3509 3.89729C25.3509 4.8607 26.1394 5.6417 27.1122 5.6417C28.0849 5.6417 28.8734 4.8607 28.8734 3.89729C28.8734 2.93388 28.0849 2.15288 27.1122 2.15288C26.1394 2.15288 25.3509 2.93388 25.3509 3.89729Z" fill="#24EF7F"/>
<path d="M25.3509 16.0716C25.3509 17.035 26.1394 17.816 27.1122 17.816C28.0849 17.816 28.8734 17.035 28.8734 16.0716C28.8734 15.1082 28.0849 14.3272 27.1122 14.3272C26.1394 14.3272 25.3509 15.1082 25.3509 16.0716Z" fill="#24EF7F"/>
<path d="M25.3509 28.2562C25.3509 29.2196 26.1394 30.0006 27.1122 30.0006C28.0849 30.0006 28.8734 29.2196 28.8734 28.2562C28.8734 27.2928 28.0849 26.5118 27.1122 26.5118C26.1394 26.5118 25.3509 27.2928 25.3509 28.2562Z" fill="#24EF7F"/>
<path d="M25.3509 40.431C25.3509 41.3944 26.1394 42.1754 27.1122 42.1754C28.0849 42.1754 28.8734 41.3944 28.8734 40.431C28.8734 39.4676 28.0849 38.6866 27.1122 38.6866C26.1394 38.6866 25.3509 39.4676 25.3509 40.431Z" fill="#24EF7F"/>
<path d="M25.3509 52.6151C25.3509 53.5785 26.1394 54.3595 27.1122 54.3595C28.0849 54.3595 28.8734 53.5785 28.8734 52.6151C28.8734 51.6516 28.0849 50.8707 27.1122 50.8707C26.1394 50.8707 25.3509 51.6516 25.3509 52.6151Z" fill="#24EF7F"/>
<path d="M13.0576 3.89729C13.0576 4.8607 13.8461 5.6417 14.8188 5.6417C15.7915 5.6417 16.5801 4.8607 16.5801 3.89729C16.5801 2.93388 15.7915 2.15288 14.8188 2.15288C13.8461 2.15288 13.0576 2.93388 13.0576 3.89729Z" fill="#24EF7F"/>
<path d="M13.0576 16.0716C13.0576 17.035 13.8461 17.816 14.8188 17.816C15.7915 17.816 16.5801 17.035 16.5801 16.0716C16.5801 15.1082 15.7915 14.3272 14.8188 14.3272C13.8461 14.3272 13.0576 15.1082 13.0576 16.0716Z" fill="#24EF7F"/>
<path d="M13.0576 28.2562C13.0576 29.2196 13.8461 30.0006 14.8188 30.0006C15.7915 30.0006 16.5801 29.2196 16.5801 28.2562C16.5801 27.2928 15.7915 26.5118 14.8188 26.5118C13.8461 26.5118 13.0576 27.2928 13.0576 28.2562Z" fill="#24EF7F"/>
<path d="M13.0576 40.431C13.0576 41.3944 13.8461 42.1754 14.8188 42.1754C15.7915 42.1754 16.5801 41.3944 16.5801 40.431C16.5801 39.4676 15.7915 38.6866 14.8188 38.6866C13.8461 38.6866 13.0576 39.4676 13.0576 40.431Z" fill="#24EF7F"/>
<path d="M13.0576 52.6151C13.0576 53.5785 13.8461 54.3595 14.8188 54.3595C15.7915 54.3595 16.5801 53.5785 16.5801 52.6151C16.5801 51.6516 15.7915 50.8707 14.8188 50.8707C13.8461 50.8707 13.0576 51.6516 13.0576 52.6151Z" fill="#24EF7F"/>
<path d="M255.477 106.703C255.477 107.667 256.266 108.448 257.239 108.448C258.211 108.448 259 107.667 259 106.703C259 105.74 258.211 104.959 257.239 104.959C256.266 104.959 255.477 105.74 255.477 106.703Z" fill="#24EF7F"/>
<path d="M255.477 118.878C255.477 119.841 256.266 120.622 257.239 120.622C258.211 120.622 259 119.841 259 118.878C259 117.915 258.211 117.133 257.239 117.133C256.266 117.133 255.477 117.914 255.477 118.878Z" fill="#24EF7F"/>
<path d="M255.477 131.062C255.477 132.025 256.266 132.806 257.239 132.806C258.211 132.806 259 132.025 259 131.062C259 130.099 258.211 129.318 257.239 129.318C256.266 129.318 255.477 130.099 255.477 131.062Z" fill="#24EF7F"/>
<path d="M243.175 106.703C243.175 107.666 243.963 108.447 244.936 108.447C245.909 108.447 246.697 107.666 246.697 106.703C246.697 105.74 245.909 104.959 244.936 104.959C243.963 104.959 243.175 105.74 243.175 106.703Z" fill="#24EF7F"/>
<path d="M243.175 118.878C243.175 119.841 243.963 120.622 244.936 120.622C245.909 120.622 246.697 119.841 246.697 118.878C246.697 117.914 245.909 117.133 244.936 117.133C243.963 117.133 243.175 117.914 243.175 118.878Z" fill="#24EF7F"/>
<path d="M243.175 131.062C243.175 132.026 243.963 132.807 244.936 132.807C245.909 132.807 246.697 132.026 246.697 131.062C246.697 130.099 245.909 129.318 244.936 129.318C243.963 129.318 243.175 130.099 243.175 131.062Z" fill="#24EF7F"/>
<path d="M170.25 69.75H87.75C83.6079 69.75 80.25 73.1079 80.25 77.25V126C80.25 130.142 83.6079 133.5 87.75 133.5H170.25C174.392 133.5 177.75 130.142 177.75 126V77.25C177.75 73.1079 174.392 69.75 170.25 69.75Z" stroke="white" stroke-width="6" stroke-linejoin="round"/>
<path d="M129 148.5V133.5" stroke="white" stroke-width="6" stroke-linecap="round" stroke-linejoin="round"/>
<path d="M129 69.75V62.25" stroke="white" stroke-width="6" stroke-linecap="round" stroke-linejoin="round"/>
<path d="M162.75 159.75L155.25 133.5" stroke="white" stroke-width="6" stroke-linecap="round" stroke-linejoin="round"/>
<path d="M95.25 159.75L102.75 133.5" stroke="white" stroke-width="6" stroke-linecap="round" stroke-linejoin="round"/>
</svg>
